<svg width="500" height="500" viewBox="0 0 500 500" fill="none" xmlns="http://www.w3.org/2000/svg">
<g clip-path="url(#clip0_2405_3)">
<rect width="500" height="500" rx="250" fill="white"/>
<mask id="mask0_2405_3" style="mask-type:luminance" maskUnits="userSpaceOnUse" x="0" y="0" width="500" height="500">
<path d="M500 0H0V500H500V0Z" fill="white"/>
</mask>
<g mask="url(#mask0_2405_3)">
<mask id="mask1_2405_3" style="mask-type:luminance" maskUnits="userSpaceOnUse" x="0" y="-22" width="500" height="1083">
<path d="M0 -22.0001H500V1060.67H0V-22.0001Z" fill="white"/>
</mask>
<g mask="url(#mask1_2405_3)">
<mask id="mask2_2405_3" style="mask-type:luminance" maskUnits="userSpaceOnUse" x="0" y="-22" width="500" height="1083">
<path d="M0 -22.0001H500V1060.67H0V-22.0001Z" fill="white"/>
</mask>
<g mask="url(#mask2_2405_3)">
<mask id="mask3_2405_3" style="mask-type:luminance" maskUnits="userSpaceOnUse" x="-5" y="-26" width="510" height="1088">
<path d="M4.71387 -25.3768L504.695 -21.0123L495.244 1061.61L-4.73669 1057.25L4.71387 -25.3768Z" fill="white"/>
</mask>
<g mask="url(#mask3_2405_3)">
<path d="M286.989 173.224C292.552 173.273 297.057 177.865 297.009 183.428L295.141 397.388C295.092 402.952 290.508 407.456 284.945 407.407L195.19 406.624C189.626 406.575 185.113 401.992 185.161 396.428L187.029 182.468C187.078 176.905 191.67 172.392 197.234 172.441L286.989 173.224ZM286.712 165.657L197.239 164.876C187.743 164.793 179.888 172.513 179.805 182.017L177.856 405.239C177.773 414.752 185.493 422.592 194.989 422.675L284.461 423.456C293.965 423.539 301.82 415.835 301.903 406.322L303.852 183.1C303.935 173.596 296.215 165.74 286.712 165.657Z" fill="#1D1C4F"/>
<path d="M301.482 406.318C301.401 415.615 293.763 423.113 284.465 423.032L194.994 422.25C185.695 422.169 178.199 414.54 178.28 405.243L180.229 182.02C180.31 172.723 187.938 165.216 197.237 165.298L286.708 166.079C296.006 166.16 303.512 173.799 303.431 183.096L301.482 406.318ZM286.715 165.233L197.244 164.452C187.48 164.367 179.469 172.249 179.383 182.013L177.435 405.235C177.35 414.999 185.223 423.011 194.986 423.096L284.458 423.877C294.221 423.962 302.234 416.089 302.319 406.325L304.268 183.103C304.353 173.34 296.479 165.319 286.715 165.233Z" fill="#F7B4B4"/>
<path d="M297.01 183.429L295.142 397.389C295.094 402.952 290.508 407.457 284.946 407.409L195.19 406.625C189.627 406.576 185.113 401.992 185.161 396.429L187.029 182.469C187.077 176.907 191.672 172.392 197.234 172.441L286.991 173.224C292.552 173.273 297.059 177.867 297.01 183.429Z" fill="#FECFB7"/>
<path d="M232.569 174.3C234.025 174.312 235.193 175.501 235.181 176.956C235.168 178.404 233.979 179.572 232.523 179.559C231.076 179.547 229.907 178.358 229.919 176.91C229.932 175.455 231.122 174.287 232.569 174.3Z" fill="#3B414B"/>
<path d="M253.743 176.866C253.733 178.099 252.672 179.099 251.369 179.088C250.076 179.077 249.023 178.058 249.034 176.825C249.045 175.592 250.115 174.592 251.408 174.603C252.711 174.614 253.754 175.633 253.743 176.866Z" fill="#515760"/>
<path d="M245.979 175.722L245.968 177.051C245.962 177.775 245.376 178.35 244.651 178.344L239.494 178.299C238.779 178.293 238.194 177.708 238.2 176.984L238.212 175.654C238.218 174.94 238.814 174.354 239.528 174.36L244.686 174.405C245.411 174.412 245.986 175.007 245.979 175.722Z" fill="#1A1F29"/>
<path d="M251.408 174.608C250.112 174.597 249.045 175.589 249.034 176.825C249.023 178.062 250.073 179.074 251.369 179.085C252.674 179.097 253.735 178.103 253.746 176.866C253.757 175.63 252.713 174.62 251.408 174.608ZM222.332 172.662L262.052 173.009C262.052 173.009 257.77 173.713 257.701 177.726C257.624 181.733 254.252 182.384 251.233 182.358L242.109 182.278L232.987 182.198C229.965 182.172 226.606 181.463 226.598 177.454C226.601 173.441 222.332 172.662 222.332 172.662ZM244.686 174.405L239.529 174.36C238.813 174.354 238.218 174.94 238.212 175.654L238.2 176.984C238.194 177.708 238.778 178.293 239.494 178.299L244.651 178.344C245.375 178.35 245.962 177.775 245.968 177.051L245.98 175.722C245.986 175.007 245.41 174.412 244.686 174.405ZM235.18 176.957C235.193 175.501 234.025 174.312 232.569 174.3C231.121 174.287 229.932 175.455 229.919 176.911C229.907 178.358 231.075 179.548 232.523 179.561C233.979 179.573 235.168 178.404 235.18 176.957Z" fill="#3E394F"/>
<path d="M299.529 182.537L297.653 397.41L295.142 397.388L297.01 183.428C297.059 177.865 292.553 173.273 286.991 173.224L197.235 172.441C191.672 172.392 187.077 176.905 187.029 182.468L185.161 396.428L182.807 396.407L184.682 181.534C184.747 174.09 190.9 168.064 198.324 168.129L286.123 168.895C293.567 168.96 299.594 175.093 299.529 182.537Z" fill="#3E394F"/>
<path d="M297.653 397.41L297.571 406.785C297.506 414.22 291.373 420.254 283.93 420.189L196.13 419.423C188.707 419.358 182.66 413.217 182.725 405.783L182.807 396.407L185.161 396.428C185.113 401.99 189.627 406.575 195.191 406.624L284.947 407.407C290.509 407.456 295.094 402.95 295.142 397.388L297.653 397.41Z" fill="#3E394F"/>
</g>
<path d="M282.779 466.472C282.779 466.472 248.933 383.747 300.341 337.542C300.341 337.542 287.486 259.352 301.118 248.593C314.749 237.834 323.591 277.072 344.263 401.258L390.535 465.478L390.11 521.024L305.924 520.289L282.779 466.472Z" fill="#FFA9A9"/>
<mask id="mask4_2405_3" style="mask-type:luminance" maskUnits="userSpaceOnUse" x="-5" y="-26" width="510" height="1088">
<path d="M4.71387 -25.3768L504.695 -21.0123L495.244 1061.61L-4.73669 1057.25L4.71387 -25.3768Z" fill="white"/>
</mask>
<g mask="url(#mask4_2405_3)">
<path d="M178.292 321.249L165.964 321.141C159.915 321.088 155.009 316.096 155.062 310.047C155.115 303.998 160.107 299.092 166.156 299.145L178.484 299.252C184.533 299.305 189.439 304.297 189.386 310.347C189.333 316.396 184.341 321.302 178.292 321.249Z" fill="#FFA9A9"/>
<path d="M175.708 346.97L163.985 346.868C156.907 346.806 151.166 340.963 151.227 333.884C151.289 326.805 157.132 321.064 164.21 321.126L175.932 321.228C183.011 321.29 188.753 327.132 188.691 334.211C188.63 341.29 182.786 347.032 175.708 346.97Z" fill="#FFA9A9"/>
<path d="M175.969 372.717L164.246 372.615C157.168 372.553 151.425 366.709 151.487 359.631C151.549 352.553 157.392 346.81 164.471 346.872L176.194 346.974C183.273 347.036 189.014 352.88 188.952 359.958C188.89 367.036 183.048 372.779 175.969 372.717Z" fill="#FFA9A9"/>
<path d="M178.194 394.732L165.868 394.624C159.819 394.572 154.913 389.579 154.966 383.53C155.019 377.481 160.011 372.575 166.06 372.628L178.386 372.736C184.436 372.788 189.342 377.781 189.289 383.83C189.236 389.879 184.244 394.785 178.194 394.732Z" fill="#FFA9A9"/>
</g>
<mask id="mask5_2405_3" style="mask-type:luminance" maskUnits="userSpaceOnUse" x="-5" y="-26" width="510" height="1088">
<path d="M4.71387 -25.3768L504.695 -21.0123L495.244 1061.61L-4.73669 1057.25L4.71387 -25.3768Z" fill="white"/>
</mask>
<g mask="url(#mask5_2405_3)">
<mask id="mask6_2405_3" style="mask-type:luminance" maskUnits="userSpaceOnUse" x="-44" y="59" width="408" height="870">
<path d="M-36.1606 59.3363L363.824 62.8279L356.264 928.928L-43.7211 925.437L-36.1606 59.3363Z" fill="white"/>
</mask>
<g mask="url(#mask6_2405_3)">
<mask id="mask7_2405_3" style="mask-type:luminance" maskUnits="userSpaceOnUse" x="227" y="318" width="56" height="55">
<path d="M228.035 318.016L282.433 318.491L281.958 372.889L227.56 372.414L228.035 318.016Z" fill="white"/>
</mask>
<g mask="url(#mask7_2405_3)">
<mask id="mask8_2405_3" style="mask-type:luminance" maskUnits="userSpaceOnUse" x="227" y="317" width="56" height="56">
<path d="M227.667 317.642L282.065 318.117L281.59 372.515L227.192 372.04L227.667 317.642Z" fill="white"/>
</mask>
<g mask="url(#mask8_2405_3)">
<mask id="mask9_2405_3" style="mask-type:luminance" maskUnits="userSpaceOnUse" x="227" y="317" width="55" height="55">
<path d="M227.667 317.642L281.324 318.11L280.855 371.767L227.199 371.298L227.667 317.642Z" fill="white"/>
</mask>
<g mask="url(#mask9_2405_3)">
<path d="M272.266 371.692L235.788 371.373C231.065 371.332 227.232 367.432 227.274 362.709L227.592 326.231C227.633 321.508 231.534 317.675 236.257 317.717L272.734 318.035C277.459 318.076 281.29 321.977 281.249 326.7L280.93 363.177C280.889 367.9 276.991 371.733 272.266 371.692Z" fill="#FC6011"/>
</g>
</g>
</g>
<mask id="mask10_2405_3" style="mask-type:luminance" maskUnits="userSpaceOnUse" x="-44" y="59" width="408" height="870">
<path d="M-36.1606 59.3363L363.824 62.8279L356.264 928.928L-43.7211 925.437L-36.1606 59.3363Z" fill="white"/>
</mask>
<g mask="url(#mask10_2405_3)">
<mask id="mask11_2405_3" style="mask-type:luminance" maskUnits="userSpaceOnUse" x="231" y="354" width="45" height="7">
<path d="M275.957 354.605L231.409 354.217L231.357 360.114L275.906 360.503L275.957 354.605Z" fill="white"/>
</mask>
<g mask="url(#mask11_2405_3)">
<path d="M274.746 355.714L274.719 358.724L233.748 358.366L233.774 355.356L274.746 355.714Z" fill="white"/>
</g>
</g>
<mask id="mask12_2405_3" style="mask-type:luminance" maskUnits="userSpaceOnUse" x="-44" y="59" width="408" height="870">
<path d="M-36.1606 59.3363L363.824 62.8279L356.264 928.928L-43.7211 925.437L-36.1606 59.3363Z" fill="white"/>
</mask>
<g mask="url(#mask12_2405_3)">
<mask id="mask13_2405_3" style="mask-type:luminance" maskUnits="userSpaceOnUse" x="-41" y="59" width="539" height="539">
<path d="M-36.1606 59.3363L497.152 63.9918L492.497 597.305L-40.8161 592.649L-36.1606 59.3363ZM280.322 339.263L228.324 338.809L227.944 382.331L279.942 382.785L280.322 339.263Z" fill="white"/>
</mask>
<g mask="url(#mask13_2405_3)">
<path d="M250.692 329.777C250.708 327.937 252.231 326.452 254.07 326.468C255.921 326.484 257.395 327.995 257.379 329.835C257.363 331.686 255.862 333.161 254.012 333.145C252.173 333.129 250.675 331.627 250.692 329.777Z" fill="white"/>
</g>
</g>
<mask id="mask14_2405_3" style="mask-type:luminance" maskUnits="userSpaceOnUse" x="-44" y="59" width="408" height="870">
<path d="M-36.1606 59.3363L363.824 62.8279L356.264 928.928L-43.7211 925.437L-36.1606 59.3363Z" fill="white"/>
</mask>
<g mask="url(#mask14_2405_3)">
<mask id="mask15_2405_3" style="mask-type:luminance" maskUnits="userSpaceOnUse" x="228" y="322" width="53" height="32">
<path d="M280.462 323.263L228.464 322.809L228.203 352.646L280.201 353.1L280.462 323.263Z" fill="white"/>
</mask>
<g mask="url(#mask15_2405_3)">
<path d="M273.966 353.516L235.128 353.177C235.128 353.177 233.728 334.346 254.444 335.096C266.897 335.545 271.439 342.086 273.068 347.245C274.167 350.682 273.966 353.516 273.966 353.516Z" fill="white"/>
</g>
</g>
</g>
<mask id="mask16_2405_3" style="mask-type:luminance" maskUnits="userSpaceOnUse" x="-47" y="123" width="409" height="871">
<path d="M-38.5874 123.518L361.397 127.009L353.837 993.11L-46.1478 989.618L-38.5874 123.518Z" fill="white"/>
</mask>
<g mask="url(#mask16_2405_3)">
<mask id="mask17_2405_3" style="mask-type:luminance" maskUnits="userSpaceOnUse" x="166" y="317" width="56" height="56">
<path d="M166.819 317.567L221.217 318.041L220.742 372.439L166.344 371.964L166.819 317.567Z" fill="white"/>
</mask>
<g mask="url(#mask17_2405_3)">
<mask id="mask18_2405_3" style="mask-type:luminance" maskUnits="userSpaceOnUse" x="165" y="317" width="56" height="56">
<path d="M166.451 317.193L220.849 317.668L220.374 372.066L165.976 371.591L166.451 317.193Z" fill="white"/>
</mask>
<g mask="url(#mask18_2405_3)">
<mask id="mask19_2405_3" style="mask-type:luminance" maskUnits="userSpaceOnUse" x="165" y="317" width="56" height="55">
<path d="M166.451 317.193L220.107 317.661L219.639 371.319L165.982 370.851L166.451 317.193Z" fill="white"/>
</mask>
<g mask="url(#mask19_2405_3)">
<path d="M211.049 371.244L174.571 370.926C169.849 370.885 166.016 366.985 166.057 362.262L166.376 325.784C166.417 321.061 170.317 317.228 175.039 317.269L211.518 317.588C216.243 317.629 220.071 321.529 220.03 326.252L219.712 362.73C219.671 367.453 215.775 371.286 211.049 371.244Z" fill="#FC6011"/>
</g>
</g>
</g>
</g>
<mask id="mask20_2405_3" style="mask-type:luminance" maskUnits="userSpaceOnUse" x="-46" y="63" width="408" height="871">
<path d="M-38.064 63.5198L361.921 67.0114L354.36 933.112L-45.6244 929.62L-38.064 63.5198Z" fill="white"/>
</mask>
<g mask="url(#mask20_2405_3)">
<mask id="mask21_2405_3" style="mask-type:luminance" maskUnits="userSpaceOnUse" x="166" y="257" width="56" height="56">
<path d="M167.342 257.569L221.74 258.044L221.265 312.442L166.867 311.967L167.342 257.569Z" fill="white"/>
</mask>
<g mask="url(#mask21_2405_3)">
<mask id="mask22_2405_3" style="mask-type:luminance" maskUnits="userSpaceOnUse" x="166" y="257" width="56" height="56">
<path d="M166.974 257.195L221.372 257.67L220.897 312.068L166.499 311.593L166.974 257.195Z" fill="white"/>
</mask>
<g mask="url(#mask22_2405_3)">
<mask id="mask23_2405_3" style="mask-type:luminance" maskUnits="userSpaceOnUse" x="166" y="257" width="55" height="55">
<path d="M166.974 257.195L220.631 257.664L220.162 311.322L166.506 310.853L166.974 257.195Z" fill="white"/>
</mask>
<g mask="url(#mask23_2405_3)">
<path d="M211.573 311.247L175.094 310.928C170.372 310.887 166.539 306.987 166.581 302.264L166.899 265.786C166.94 261.063 170.841 257.231 175.563 257.272L212.041 257.59C216.766 257.631 220.595 261.532 220.554 266.255L220.235 302.732C220.194 307.455 216.298 311.288 211.573 311.247Z" fill="#FC6011"/>
</g>
</g>
</g>
</g>
<mask id="mask24_2405_3" style="mask-type:luminance" maskUnits="userSpaceOnUse" x="-46" y="2" width="409" height="871">
<path d="M-37.5342 2.85547L362.451 6.34705L354.89 872.447L-45.0946 868.956L-37.5342 2.85547Z" fill="white"/>
</mask>
<g mask="url(#mask24_2405_3)">
<mask id="mask25_2405_3" style="mask-type:luminance" maskUnits="userSpaceOnUse" x="167" y="196" width="56" height="56">
<path d="M167.872 196.904L222.27 197.379L221.795 251.777L167.397 251.302L167.872 196.904Z" fill="white"/>
</mask>
<g mask="url(#mask25_2405_3)">
<mask id="mask26_2405_3" style="mask-type:luminance" maskUnits="userSpaceOnUse" x="167" y="196" width="55" height="56">
<path d="M167.504 196.531L221.902 197.006L221.427 251.404L167.029 250.929L167.504 196.531Z" fill="white"/>
</mask>
<g mask="url(#mask26_2405_3)">
<mask id="mask27_2405_3" style="mask-type:luminance" maskUnits="userSpaceOnUse" x="167" y="196" width="55" height="55">
<path d="M167.504 196.531L221.161 196.999L220.692 250.657L167.036 250.189L167.504 196.531Z" fill="white"/>
</mask>
<g mask="url(#mask27_2405_3)">
<path d="M212.103 250.582L175.624 250.264C170.902 250.223 167.069 246.322 167.111 241.599L167.429 205.122C167.47 200.399 171.37 196.566 176.092 196.607L212.571 196.926C217.296 196.967 221.125 200.867 221.083 205.59L220.765 242.068C220.724 246.791 216.828 250.624 212.103 250.582Z" fill="#FC6011"/>
</g>
</g>
</g>
</g>
<mask id="mask28_2405_3" style="mask-type:luminance" maskUnits="userSpaceOnUse" x="17" y="64" width="409" height="870">
<path d="M25.2671 64.0726L425.252 67.5642L417.691 933.665L17.7066 930.173L25.2671 64.0726Z" fill="white"/>
</mask>
<g mask="url(#mask28_2405_3)">
<mask id="mask29_2405_3" style="mask-type:luminance" maskUnits="userSpaceOnUse" x="230" y="258" width="56" height="55">
<path d="M230.673 258.122L285.071 258.596L284.596 312.994L230.198 312.52L230.673 258.122Z" fill="white"/>
</mask>
<g mask="url(#mask29_2405_3)">
<mask id="mask30_2405_3" style="mask-type:luminance" maskUnits="userSpaceOnUse" x="229" y="257" width="56" height="56">
<path d="M230.305 257.748L284.703 258.223L284.228 312.621L229.83 312.146L230.305 257.748Z" fill="white"/>
</mask>
<g mask="url(#mask30_2405_3)">
<mask id="mask31_2405_3" style="mask-type:luminance" maskUnits="userSpaceOnUse" x="229" y="257" width="55" height="55">
<path d="M230.305 257.748L283.962 258.217L283.493 311.874L229.837 311.406L230.305 257.748Z" fill="white"/>
</mask>
<g mask="url(#mask31_2405_3)">
<path d="M274.904 311.8L238.425 311.481C233.703 311.44 229.871 307.54 229.912 302.817L230.23 266.339C230.271 261.616 234.172 257.783 238.894 257.825L275.372 258.143C280.097 258.184 283.926 262.085 283.885 266.808L283.566 303.285C283.525 308.008 279.629 311.841 274.904 311.8Z" fill="#FC6011"/>
</g>
</g>
</g>
</g>
<mask id="mask32_2405_3" style="mask-type:luminance" maskUnits="userSpaceOnUse" x="18" y="3" width="408" height="871">
<path d="M25.7969 3.40833L425.782 6.89991L418.221 873L18.2364 869.509L25.7969 3.40833Z" fill="white"/>
</mask>
<g mask="url(#mask32_2405_3)">
<mask id="mask33_2405_3" style="mask-type:luminance" maskUnits="userSpaceOnUse" x="230" y="197" width="56" height="56">
<path d="M231.203 197.457L285.601 197.932L285.126 252.33L230.728 251.855L231.203 197.457Z" fill="white"/>
</mask>
<g mask="url(#mask33_2405_3)">
<mask id="mask34_2405_3" style="mask-type:luminance" maskUnits="userSpaceOnUse" x="230" y="197" width="56" height="55">
<path d="M230.835 197.084L285.233 197.559L284.758 251.957L230.36 251.482L230.835 197.084Z" fill="white"/>
</mask>
<g mask="url(#mask34_2405_3)">
<mask id="mask35_2405_3" style="mask-type:luminance" maskUnits="userSpaceOnUse" x="230" y="197" width="55" height="55">
<path d="M230.835 197.084L284.492 197.552L284.023 251.21L230.367 250.742L230.835 197.084Z" fill="white"/>
</mask>
<g mask="url(#mask35_2405_3)">
<path d="M275.434 251.135L238.955 250.817C234.233 250.776 230.4 246.875 230.442 242.152L230.76 205.675C230.801 200.952 234.701 197.119 239.423 197.16L275.902 197.479C280.627 197.52 284.456 201.42 284.414 206.143L284.096 242.621C284.055 247.344 280.159 251.177 275.434 251.135Z" fill="#FC6011"/>
</g>
</g>
</g>
</g>
</g>
<mask id="mask36_2405_3" style="mask-type:luminance" maskUnits="userSpaceOnUse" x="-5" y="-26" width="510" height="1088">
<path d="M4.71436 -25.3765L504.694 -21.012L495.244 1061.61L-4.73618 1057.25L4.71436 -25.3765Z" fill="white"/>
</mask>
<g mask="url(#mask36_2405_3)">
<path d="M253.91 124.46C253.964 118.246 248.973 113.165 242.757 113.11C236.542 113.056 231.463 118.049 231.408 124.264C231.354 130.465 236.346 135.546 242.56 135.6C248.776 135.654 253.856 130.661 253.91 124.46ZM264.967 124.557C265.088 141.74 242.344 160.355 242.344 160.355C217.615 137.905 220.337 124.167 220.337 124.167C220.444 111.841 230.527 101.933 242.853 102.04C255.178 102.148 265.075 112.23 264.967 124.557Z" fill="#EDAC4A"/>
</g>
<mask id="mask37_2405_3" style="mask-type:luminance" maskUnits="userSpaceOnUse" x="-5" y="-53" width="510" height="1088">
<path d="M4.94678 -52.0425L504.928 -47.678L495.477 1034.95L-4.50378 1030.58L4.94678 -52.0425Z" fill="white"/>
</mask>
<g mask="url(#mask37_2405_3)">
<path d="M244.009 203.01C243.735 234.445 218.027 259.732 186.566 259.457C155.109 259.183 129.843 233.451 130.118 202.016C130.392 170.557 156.103 145.293 187.561 145.567L187.063 202.513L244.009 203.01Z" fill="#FFE1A4"/>
<path d="M235.808 202.937C235.573 229.843 213.568 251.49 186.638 251.255C159.707 251.02 138.084 228.992 138.319 202.086C138.554 175.155 160.558 153.533 187.489 153.768L187.063 202.512L235.808 202.937Z" fill="#EDAC4A"/>
<path d="M177.536 176.446C177.496 181.021 173.757 184.695 169.183 184.655C164.61 184.615 160.934 180.876 160.974 176.302C161.014 171.728 164.754 168.054 169.327 168.094C173.902 168.134 177.576 171.873 177.536 176.446Z" fill="#F25C5C"/>
<path d="M166.94 220.369C166.903 224.597 163.447 227.996 159.216 227.959C154.99 227.922 151.591 224.463 151.627 220.235C151.664 216.007 155.124 212.608 159.35 212.645C163.581 212.682 166.977 216.141 166.94 220.369Z" fill="#F25C5C"/>
<path d="M176.296 207.774C176.278 209.794 174.627 211.418 172.607 211.401C170.586 211.383 168.963 209.73 168.98 207.71C168.998 205.69 170.649 204.066 172.671 204.083C174.691 204.101 176.314 205.754 176.296 207.774Z" fill="#F25C5C"/>
<path d="M181.661 230.111C181.636 232.977 179.293 235.28 176.427 235.255C173.56 235.23 171.258 232.887 171.283 230.02C171.308 227.154 173.651 224.851 176.517 224.876C179.384 224.901 181.686 227.244 181.661 230.111Z" fill="#F25C5C"/>
<path d="M204.749 216.785C204.724 219.605 202.419 221.87 199.6 221.846C196.781 221.821 194.515 219.516 194.54 216.696C194.565 213.876 196.87 211.612 199.69 211.637C202.508 211.661 204.773 213.965 204.749 216.785Z" fill="#F25C5C"/>
<path d="M220.708 220.753C220.687 223.242 218.649 225.246 216.16 225.224C213.671 225.202 211.668 223.163 211.69 220.674C211.712 218.183 213.749 216.182 216.239 216.204C218.728 216.226 220.73 218.262 220.708 220.753Z" fill="#F25C5C"/>
<path d="M239.271 199.258L191.633 198.842L192.049 151.204C218.365 151.434 239.501 172.939 239.271 199.258Z" fill="#FFE1A4"/>
<path d="M232.411 199.198L191.633 198.842L191.989 158.065C214.519 158.262 232.608 176.668 232.411 199.198Z" fill="#EDAC4A"/>
<path d="M214.053 174.547C214.022 178.007 211.194 180.787 207.735 180.757C204.274 180.726 201.496 177.898 201.526 174.438C201.557 170.978 204.384 168.201 207.845 168.232C211.303 168.262 214.083 171.088 214.053 174.547Z" fill="#F25C5C"/>
<path d="M205.006 188.8C204.984 191.368 202.883 193.432 200.315 193.41C197.748 193.387 195.683 191.287 195.706 188.719C195.728 186.151 197.829 184.088 200.397 184.11C202.964 184.132 205.029 186.232 205.006 188.8Z" fill="#F25C5C"/>
<path d="M222.426 193.601C222.41 195.515 220.846 197.052 218.934 197.035C217.019 197.018 215.483 195.454 215.5 193.541C215.517 191.628 217.08 190.091 218.994 190.107C220.906 190.124 222.443 191.688 222.426 193.601Z" fill="#F25C5C"/>
<path d="M159.91 192.378C157.508 189.842 155.107 187.305 152.706 184.77C152.103 184.134 150.873 184.295 150.359 184.953C149.753 185.725 149.902 186.624 150.542 187.302C152.942 189.837 155.345 192.376 157.745 194.911C158.346 195.546 159.579 195.385 160.093 194.727C160.699 193.954 160.549 193.056 159.91 192.378Z" fill="#FFE1A4"/>
<path d="M154.625 200.523C154.058 199.781 153.096 199.607 152.307 200.107L145.618 204.349C144.882 204.816 144.673 205.973 145.203 206.667C145.767 207.409 146.731 207.583 147.519 207.084C149.749 205.67 151.979 204.255 154.207 202.842C154.943 202.375 155.154 201.217 154.625 200.523Z" fill="#FFE1A4"/>
<path d="M168.237 188.216C167.332 188.084 166.477 188.625 166.286 189.536C165.696 192.361 165.106 195.186 164.518 198.009C164.337 198.864 164.956 199.833 165.838 199.962C166.742 200.094 167.598 199.554 167.788 198.642C168.378 195.818 168.967 192.992 169.557 190.168C169.734 189.316 169.117 188.345 168.237 188.216Z" fill="#FFE1A4"/>
<path d="M182.484 194.321C182.111 193.416 181.259 193.095 180.35 193.323C177.978 193.917 175.606 194.513 173.233 195.108C172.386 195.32 171.916 196.468 172.236 197.241C172.608 198.145 173.46 198.469 174.368 198.241C176.74 197.645 179.114 197.05 181.486 196.456C182.333 196.242 182.804 195.094 182.484 194.321Z" fill="#FFE1A4"/>
<path d="M183.263 169.298C183.23 168.426 182.338 167.662 181.472 167.769C180.544 167.884 179.907 168.626 179.94 169.56L180.19 176.353C180.224 177.226 181.116 177.992 181.982 177.884C182.91 177.769 183.546 177.025 183.511 176.092L183.263 169.298Z" fill="#FFE1A4"/>
<path d="M177.993 159.867C176.136 160.21 174.284 160.554 172.428 160.897C171.979 160.981 171.6 161.119 171.292 161.476C171.026 161.787 170.846 162.276 170.897 162.689C170.998 163.508 171.772 164.39 172.689 164.219C174.546 163.875 176.399 163.53 178.254 163.188C178.703 163.104 179.084 162.966 179.39 162.608C179.656 162.297 179.836 161.807 179.782 161.396C179.683 160.576 178.91 159.696 177.993 159.867Z" fill="#FFE1A4"/>
<path d="M157.915 169.564C157.127 169.224 156.045 169.478 155.691 170.338C154.951 172.131 154.213 173.924 153.473 175.716C153.141 176.52 153.388 177.573 154.247 177.943C155.035 178.282 156.119 178.027 156.474 177.168C157.214 175.374 157.951 173.582 158.69 171.788C159.023 170.984 158.775 169.934 157.915 169.564Z" fill="#FFE1A4"/>
<path d="M148.55 216.231C148.413 215.372 147.7 214.584 146.759 214.7C145.921 214.804 145.085 215.57 145.229 216.491C145.621 218.964 146.008 221.437 146.399 223.908C146.535 224.768 147.248 225.556 148.191 225.438C149.028 225.335 149.864 224.57 149.72 223.648C149.329 221.176 148.94 218.703 148.55 216.231Z" fill="#FFE1A4"/>
<path d="M181.223 212.943C178.695 213.487 176.172 214.032 173.646 214.575C173.19 214.674 172.824 214.785 172.509 215.153C172.245 215.464 172.064 215.953 172.115 216.366C172.214 217.164 172.995 218.092 173.907 217.896C176.434 217.353 178.958 216.808 181.485 216.265C181.937 216.166 182.305 216.054 182.62 215.686C182.886 215.375 183.065 214.885 183.012 214.473C182.914 213.675 182.134 212.747 181.223 212.943Z" fill="#FFE1A4"/>
<path d="M190.128 208.723C189.995 207.863 189.276 207.076 188.337 207.192C187.494 207.296 186.664 208.06 186.806 208.983C187.245 211.816 187.683 214.651 188.122 217.483C188.253 218.343 188.972 219.129 189.913 219.013C190.752 218.91 191.584 218.145 191.442 217.222C191.004 214.389 190.566 211.556 190.128 208.723Z" fill="#FFE1A4"/>
<path d="M195.588 226.011L186.05 222.984C185.217 222.72 184.22 223.486 184.1 224.304C183.956 225.286 184.528 225.973 185.42 226.257L194.958 229.283C195.79 229.548 196.789 228.782 196.908 227.963C197.053 226.983 196.48 226.295 195.588 226.011Z" fill="#FFE1A4"/>
<path d="M213.408 208.026C213.272 207.65 212.939 207.256 212.566 207.094C211.814 206.77 210.648 206.991 210.34 207.868L207.966 214.637C207.813 215.076 207.738 215.478 207.9 215.931C208.037 216.307 208.367 216.701 208.742 216.863C209.494 217.187 210.659 216.966 210.966 216.089L213.341 209.318C213.493 208.88 213.571 208.479 213.408 208.026Z" fill="#FFE1A4"/>
<path d="M227.816 209.963C227.538 209.595 227.201 209.416 226.765 209.279C224.918 208.696 223.071 208.113 221.223 207.53C220.84 207.41 220.274 207.579 219.959 207.799C219.63 208.028 219.332 208.449 219.272 208.851C219.21 209.283 219.268 209.76 219.543 210.117C219.821 210.485 220.156 210.665 220.593 210.804C222.441 211.385 224.289 211.968 226.135 212.549C226.519 212.67 227.086 212.5 227.4 212.28C227.729 212.051 228.026 211.631 228.085 211.229C228.148 210.796 228.089 210.321 227.816 209.963Z" fill="#FFE1A4"/>
<path d="M225.26 223.786C224.604 223.272 223.449 223.211 222.91 223.971L218.692 229.954C218.432 230.323 218.262 230.7 218.298 231.167C218.329 231.572 218.55 232.045 218.877 232.303C219.535 232.815 220.689 232.876 221.225 232.116L225.444 226.134C225.704 225.765 225.876 225.389 225.838 224.922C225.807 224.515 225.587 224.042 225.26 223.786Z" fill="#FFE1A4"/>
<path d="M211.605 235.167C211.109 232.9 210.615 230.63 210.12 228.363C210.038 227.987 209.608 227.591 209.279 227.431C208.907 227.251 208.376 227.204 207.986 227.365C207.595 227.525 207.228 227.805 207.055 228.204C206.864 228.647 206.886 229.034 206.988 229.497L208.472 236.301C208.556 236.678 208.985 237.074 209.313 237.234C209.685 237.413 210.217 237.462 210.606 237.3C210.997 237.139 211.366 236.86 211.538 236.46C211.729 236.019 211.706 235.631 211.605 235.167Z" fill="#FFE1A4"/>
<path d="M200.193 233.732C197.464 233.958 194.734 234.187 192.005 234.415C191.138 234.486 190.365 235.31 190.476 236.206C190.587 237.099 191.335 237.813 192.266 237.735C194.997 237.508 197.726 237.281 200.454 237.054C201.322 236.982 202.094 236.158 201.983 235.262C201.873 234.369 201.124 233.653 200.193 233.732Z" fill="#FFE1A4"/>
<path d="M201.48 240.717C200.962 240.035 199.891 239.723 199.16 240.3C197.037 241.979 194.913 243.659 192.79 245.339C192.107 245.878 191.803 246.91 192.371 247.657C192.892 248.339 193.959 248.649 194.69 248.072C196.814 246.394 198.939 244.715 201.063 243.035C201.745 242.496 202.05 241.464 201.48 240.717Z" fill="#FFE1A4"/>
<path d="M184.767 243.686C183.034 241.822 181.301 239.955 179.568 238.087C179.297 237.796 178.733 237.664 178.355 237.693C177.949 237.725 177.475 237.944 177.219 238.271C176.954 238.61 176.771 239.042 176.826 239.484C176.883 239.949 177.087 240.278 177.404 240.619C179.137 242.487 180.87 244.354 182.603 246.221C182.874 246.511 183.44 246.644 183.816 246.616C184.223 246.583 184.696 246.363 184.952 246.036C185.217 245.697 185.398 245.265 185.344 244.823C185.286 244.358 185.085 244.029 184.767 243.686Z" fill="#FFE1A4"/>
<path d="M170.079 236.399C167.401 236.784 164.721 237.172 162.043 237.556C161.182 237.68 160.397 238.413 160.513 239.347C160.616 240.195 161.38 241.009 162.304 240.877C164.982 240.491 167.661 240.105 170.339 239.72C171.2 239.596 171.984 238.863 171.87 237.93C171.764 237.081 171.003 236.267 170.079 236.399Z" fill="#FFE1A4"/>
<path d="M162.472 231.827C159.805 230.931 157.137 230.035 154.47 229.137C153.646 228.862 152.631 229.016 152.244 229.911C151.925 230.654 152.135 231.842 153.018 232.138C155.687 233.035 158.354 233.93 161.022 234.827C161.846 235.103 162.858 234.949 163.246 234.051C163.567 233.31 163.353 232.123 162.472 231.827Z" fill="#FFE1A4"/>
<path d="M211.905 183.496C210.952 183.356 210.206 183.916 209.954 184.816C209.264 187.28 208.573 189.744 207.884 192.208C207.647 193.048 208.364 194.035 209.204 194.158C210.158 194.298 210.904 193.738 211.156 192.838C211.845 190.374 212.536 187.911 213.226 185.447C213.461 184.608 212.746 183.619 211.905 183.496Z" fill="#FFE1A4"/>
<path d="M224.193 184.576C223.942 184.247 223.568 183.939 223.141 183.891C221.651 183.723 220.16 183.556 218.67 183.388C218.22 183.338 217.786 183.391 217.403 183.657C217.075 183.886 216.78 184.306 216.719 184.708C216.655 185.141 216.712 185.616 216.986 185.975C217.238 186.305 217.613 186.612 218.04 186.66C219.53 186.828 221.022 186.995 222.511 187.163C222.961 187.214 223.396 187.161 223.777 186.894C224.106 186.668 224.402 186.246 224.461 185.843C224.524 185.41 224.465 184.935 224.193 184.576Z" fill="#FFE1A4"/>
<path d="M218.935 172.749C218.072 172.623 217.124 173.148 216.985 174.069C216.715 175.868 216.444 177.669 216.174 179.466C216.046 180.326 216.579 181.283 217.494 181.417C218.357 181.543 219.31 181.018 219.447 180.096C219.716 178.298 219.985 176.499 220.256 174.7C220.383 173.84 219.85 172.882 218.935 172.749Z" fill="#FFE1A4"/>
<path d="M201.203 166.323C200.34 164.928 199.479 163.531 198.617 162.133C198.159 161.39 196.986 161.192 196.296 161.716C195.547 162.288 195.39 163.24 195.881 164.035C196.744 165.431 197.605 166.828 198.467 168.223C198.925 168.967 200.098 169.167 200.785 168.641C201.534 168.07 201.695 167.118 201.203 166.323Z" fill="#FFE1A4"/>
<path d="M199.777 172.01C199.086 171.47 198.008 171.468 197.427 172.195C196.175 173.775 194.92 175.354 193.663 176.932C193.121 177.614 193.122 178.711 193.848 179.279C194.538 179.82 195.617 179.822 196.196 179.095C197.45 177.516 198.708 175.937 199.962 174.359C200.504 173.677 200.503 172.578 199.777 172.01Z" fill="#FFE1A4"/>
</g>
<mask id="mask38_2405_3" style="mask-type:luminance" maskUnits="userSpaceOnUse" x="-23" y="-95" width="510" height="1088">
<path d="M-13.3525 -94.5372L486.628 -90.1727L477.178 992.453L-22.8031 988.088L-13.3525 -94.5372Z" fill="white"/>
</mask>
<g mask="url(#mask38_2405_3)">
<g opacity="0.0131149">
<path d="M155.226 43.9035L151 40.9424L153.409 37.4973L157.641 40.4503L160.586 36.2277L164.038 38.6336L161.086 42.867L165.34 45.8409L162.933 49.2859L158.679 46.3107L155.717 50.5363L152.271 48.1196L155.226 43.9035Z" fill="#FC6011"/>
</g>
<g opacity="0.0117199">
<path d="M198.239 57.3544C197.748 54.585 195.096 52.7378 192.327 53.2282C189.565 53.717 187.709 56.3628 188.199 59.1322C188.689 61.9016 191.34 63.7567 194.104 63.2678C196.874 62.7775 198.729 60.1237 198.239 57.3544ZM191.797 50.2328C196.222 49.4479 200.45 52.4063 201.234 56.8248C202.016 61.242 199.059 65.4809 194.634 66.2632C190.217 67.0439 185.984 64.0803 185.204 59.6617C184.423 55.2445 187.38 51.0136 191.797 50.2328Z" fill="#FC6011"/>
</g>
<g opacity="0.01">
<path d="M178.445 80.3444L173.727 90.6563L163.417 85.9387L168.135 75.6268L178.445 80.3444Z" fill="#FECFB7"/>
</g>
<g opacity="0.01">
<path d="M149.811 69.3086C150.476 73.0693 147.967 76.659 144.205 77.324C140.444 77.9889 136.856 75.4804 136.191 71.7183C135.524 67.9576 138.035 64.3679 141.795 63.7029C145.558 63.0393 149.146 65.5478 149.811 69.3086Z" fill="#FECFB7"/>
</g>
<g opacity="0.01">
<path d="M160.801 111.822C161.255 114.392 159.54 116.846 156.97 117.302C154.4 117.756 151.946 116.041 151.491 113.469C151.035 110.899 152.751 108.446 155.321 107.991C157.893 107.536 160.346 109.252 160.801 111.822Z" fill="#FC6011"/>
</g>
</g>
<mask id="mask39_2405_3" style="mask-type:luminance" maskUnits="userSpaceOnUse" x="47" y="-42" width="424" height="903">
<path d="M470.342 -38.2862L55.3576 -41.9087L47.5136 856.671L462.498 860.293L470.342 -38.2862Z" fill="white"/>
</mask>
<g mask="url(#mask39_2405_3)">
<g opacity="0.0178239">
<path d="M328.413 74.5795L332.044 72.3074L330.196 69.348L326.56 71.6131L324.301 67.9859L321.337 69.8312L323.6 73.4675L319.946 75.749L321.793 78.7084L325.447 76.4258L327.72 80.0561L330.68 78.2017L328.413 74.5795Z" fill="#FC6011"/>
</g>
<g opacity="0.0161656">
<path d="M292.499 84.8821C293.025 82.6078 295.303 81.1911 297.577 81.7171C299.845 82.2414 301.27 84.5146 300.744 86.7889C300.218 89.0632 297.94 90.4865 295.67 89.962C293.396 89.4361 291.973 87.1564 292.499 84.8821ZM298.145 79.2572C294.511 78.4156 290.879 80.6853 290.039 84.3139C289.2 87.9415 291.468 91.5826 295.102 92.4219C298.73 93.2597 302.366 90.9858 303.204 87.3571C304.042 83.7294 301.773 80.095 298.145 79.2572Z" fill="#FC6011"/>
</g>
<g opacity="0.0131149">
<path d="M308.696 104.173L312.162 112.924L320.912 109.459L317.446 100.708L308.696 104.173Z" fill="#FECFB7"/>
</g>
<g opacity="0.0104098">
<path d="M332.619 95.4398C331.906 98.5283 333.83 101.612 336.92 102.326C340.008 103.039 343.091 101.115 343.804 98.0249C344.52 94.9366 342.593 91.8527 339.505 91.1393C336.415 90.4269 333.333 92.3513 332.619 95.4398Z" fill="#FECFB7"/>
</g>
<g opacity="0.01">
<path d="M322.848 130.614C322.361 132.725 323.676 134.833 325.787 135.321C327.898 135.809 330.005 134.493 330.494 132.381C330.982 130.271 329.666 128.163 327.555 127.675C325.443 127.187 323.335 128.504 322.848 130.614Z" fill="#FC6011"/>
</g>
</g>
</g>
</g>
</g>
</g>
<defs>
<clipPath id="clip0_2405_3">
<rect width="500" height="500" rx="250" fill="white"/>
</clipPath>
</defs>
</svg>
